<?xml version="1.0" encoding="UTF-8"?>
<svg id="_レイヤー_1" data-name="レイヤー 1" xmlns="http://www.w3.org/2000/svg" xmlns:xlink="http://www.w3.org/1999/xlink" viewBox="0 0 985.6481832 211.9177076">
  <defs>
    <style>
      .cls-1 {
        fill: #fff;
      }

      .cls-2 {
        fill: #e9645f;
      }

      .cls-3 {
        fill: #303030;
      }

      .cls-4 {
        fill: url(#_名称未設定グラデーション_4);
      }
    </style>
    <linearGradient id="_名称未設定グラデーション_4" data-name="名称未設定グラデーション 4" x1="-13.7196967" y1="308.412718" x2="-12.7170432" y2="308.412718" gradientTransform="translate(13487.0069207 303267.7376271) scale(983.0397291 -983.0397291)" gradientUnits="userSpaceOnUse">
      <stop offset="0" stop-color="#e6645e"/>
      <stop offset=".1" stop-color="#ff8477"/>
      <stop offset=".24" stop-color="#ffbea5"/>
      <stop offset=".43" stop-color="#ffdf91"/>
      <stop offset=".49" stop-color="#ffe789"/>
      <stop offset=".56" stop-color="#eaea7b"/>
      <stop offset=".63" stop-color="#cbed68"/>
      <stop offset=".69" stop-color="#a2e677"/>
      <stop offset=".78" stop-color="#85d699"/>
      <stop offset=".85" stop-color="#64cba8"/>
      <stop offset=".9" stop-color="#5fcaaf"/>
      <stop offset=".95" stop-color="#41bcb5"/>
      <stop offset=".99" stop-color="#39bfc2"/>
      <stop offset="1" stop-color="#38c0c2"/>
    </linearGradient>
  </defs>
  <g>
    <rect x="738.6569428" y="202.4510685" width="1.4891658" height="1.3688784"/>
    <rect x="738.7177835" y="196.2533171" width="1.3872251" height="4.8615949"/>
    <path d="M722.1076977,201.7004654l-4.7588025-.0046968-.0113267,2.115127-1.3663284.0102634-.0026352-4.6410232,2.9950674-3.0145706,1.5450598.0042042,2.9692701,2.9970734.0023116,4.648598-1.3691948.0045451-.0034211-2.1195205ZM722.1028434,200.4964474l-.0103096-.8991792-2.3696926-2.2985834-2.3645147,2.2898348-.0036985.9101238s4.7482155-.0021967,4.7482155-.002196Z"/>
    <polygon points="698.7345775 200.4815637 698.7168246 203.8107454 697.3337141 203.822296 697.336488 200.4795187 693.7959341 196.9635102 694.7843192 195.979837 698.0558977 199.2942476 701.3056549 195.9927515 702.3012985 196.9400289 698.7345775 200.4815637"/>
    <polygon points="678.5540722 196.2661182 679.9308027 196.255287 679.9406963 202.0779073 678.1537528 203.9069793 674.1268426 203.9134936 672.3331031 202.1171059 672.3292197 196.2572937 673.7108508 196.2647175 673.717092 201.5692363 674.7809734 202.6271776 677.5164504 202.6253977 678.5529626 201.5773406 678.5540722 196.2661182"/>
    <polygon points="655.7770621 200.7776922 653.2910508 200.7727686 653.2840698 199.5869297 657.1194888 199.582688 657.118148 203.8213107 651.223574 203.8172582 649.3965478 201.9869741 649.3975649 198.0906082 651.230555 196.2571803 656.9052978 196.2514238 656.9137119 197.5174773 651.9041955 197.5166444 650.8524268 198.5287601 650.8481735 201.4911042 651.923058 202.5984707 655.7624529 202.6078254 655.7770621 200.7776922"/>
    <path d="M633.2680102,201.7004654l-4.7588025-.0046968-.011373,2.115127-1.3663515.0102634-.0026583-4.6410232,2.9950674-3.014533,1.545106.0041659,2.9693626,2.9971868.0021729,4.6485214-1.3691486.0045451-.0034674-2.1195205.0000925-.0000361ZM633.2631559,200.4964474l-.0103096-.8991409-2.3696464-2.2985834-2.3645147,2.2898348-.0037216.9101245,4.7481924-.0021967v-.0000383Z"/>
    <polygon points="609.7995836 200.0036078 612.263265 202.3240429 612.2673565 203.8084728 610.8618237 203.8192664 610.8318656 202.8290031 608.5365596 200.6773285 606.3477019 200.6848657 606.3425933 203.812336 604.9623029 203.8143052 604.9621642 196.2606268 606.3380164 196.2524467 606.3486959 199.3568893 608.5423617 199.3848016 610.8434929 197.2878161 610.8566689 196.2593012 612.2581564 196.2514613 612.2712862 197.7579329 609.7995836 200.0036078"/>
    <circle class="cls-2" cx="573.1629899" cy="200.7451589" r="11.172553"/>
    <path class="cls-1" d="M579.6944965,200.3493493l-9.111345-5.2604348c-.3787292-.2186783-.8521407.0546508-.8521407.4919691v10.5209071c0,.4373191.4734115.7106474.8521407.4919691l9.111345-5.2604348c.3787292-.2186783.3787292-.7652982,0-.9839758Z"/>
    <path d="M540.3938999,203.6912555l-5.1077355.0026887.0122051-1.2751438,4.0525225-.0054539c.064077-.0000751.2139136-.0825248.2524707-.1127097.0505542-.0395771.037725-.2054228-.0334717-.266398l-4.7120393-4.0354356,1.3274939-1.7518876,4.952143.0008329-.0201107,1.2785137-3.8876838.0048095c-.0663192.0000758-.2123186.0784723-.2487491.1077102-.0487512.0391228-.0394355.2096263.0141931.2553017l4.7411883,4.0375558-1.3424729,1.7595758.0000462.0000405Z"/>
    <path d="M519.9529027,203.4802285l-5.1072731.0026887.0122051-1.2751048,4.0491014-.0049988c.0664348-.0000751.2174272-.0815785.2543893-.1132775.0489361-.0420014.0360838-.2092485-.0174524-.2551117l-4.7304394-4.0498649,1.3305914-1.748517,4.9526747.000947-.0199258,1.2781734-3.890527.0047344c-.0633142.0000758-.2095909.0787757-.2460676.1079002-.0488899.0390093-.039528.2095512.0141238.2552258l4.7411883,4.0376323-1.3425654,1.7595758-.0000231-.0000029Z"/>
    <polygon points="499.9834215 200.3315495 495.5373063 200.3383664 495.5368902 202.2159534 500.4649004 202.2225067 500.4641838 203.4808714 494.1789529 203.4839776 494.1790222 196.0366845 500.41571 196.0361919 500.4185532 197.3083812 495.5387857 197.3073584 495.5261645 199.0283416 499.9758164 199.0353861 499.9834215 200.3315495"/>
    <polygon points="474.8509581 202.2218248 479.229552 202.2331111 479.244323 203.4815909 474.2646028 203.4864004 472.4363283 201.669751 472.4372067 197.8457599 474.2410941 196.041229 479.1989236 196.0341093 479.2110825 197.2896719 474.8631863 197.2969433 473.8709177 198.2759961 473.8623649 201.2034975 474.8509581 202.2218248"/>
    <polygon points="456.2064511 203.4823494 456.2028682 197.3101612 451.617411 197.3064121 451.6150532 203.471404 450.2551047 203.4771599 450.2549198 196.0357375 456.5640987 196.0371389 457.562886 197.0085036 457.5660529 203.4678818 456.2064511 203.4823494"/>
    <rect x="433.1210301" y="196.0365704" width="1.3618671" height="7.4463453"/>
    <path d="M418.4423499,202.9383798l-.9798439.9063747-3.0067293-2.9839313-2.1686777-.0156039-.0057558,2.6332279-1.3693335-.0027262-.0003005-7.4394532,5.8741974.0001134,1.4677259,1.4636365-.0090845,1.7772622-1.4236094,1.4308764-.5876035.0851008,2.2090494,2.1451227h-.0000347ZM416.8050696,197.980512c-.1770901-.2369709-.5058661-.5380981-.7400753-.7487473l-3.7785426.00606.0001156,2.4138301,3.7729717.0040525c.6706123-.6892112.9704589-.62157.7455306-1.6751569v-.0000383Z"/>
    <path d="M394.7854486,201.1552093l-4.1518973.0100366-.0187469,2.3116496-1.3540308-.0009087-.0004508-7.439529,5.4988085-.0002651,1.5197248,1.5007143-.0121242,2.1269053-1.4812833,1.4914354v-.0000383ZM394.8742248,199.2381203l-.0301083-1.2514725-.7158384-.6933395-3.5037767.0016665-.0018608,2.6454987,3.5071053.0029538.7444326-.7053077.0000462.0000007Z"/>
    <polygon points="353.9521245 202.4850039 358.383746 202.496517 358.3986673 203.7719253 353.3586842 203.7768489 351.5082532 201.9211129 351.5091316 198.0146352 353.3348634 196.1712466 358.3527246 196.1639753 358.3650338 197.4465797 353.964503 197.4540404 352.9602257 198.4541503 352.9515573 201.4447476 353.9521245 202.4850039"/>
    <rect x="335.2820977" y="196.1513259" width="1.3783486" height="7.6068137"/>
    <polygon points="315.487551 197.4338162 315.4803562 203.7290527 314.1066654 203.7410585 314.099696 197.435331 310.8534582 197.4357103 310.8507652 203.7307575 309.4848413 203.7376503 309.4840843 196.1362522 319.1149047 196.1367449 320.1117561 197.1452249 320.1100513 203.7224257 318.739169 203.7426115 318.7326157 197.4361646 315.487551 197.4338162"/>
    <path d="M293.6553239,203.8054807l-5.1690472.0028028.0123467-1.3025635,4.0981531-.0051129c.0672265-.0000751.2200797-.0833584.2574579-.1157393.0495025-.0429101.0365461-.2137171-.0176894-.2605656l-4.7877435-4.1371625,1.3466107-1.7861626,5.0127469.000947-.0201859,1.3057065-3.9376081.0048478c-.0640799.0000758-.212125.0803664-.2489773.1102479-.0493493.0400315-.0398805.2143232.0140891.2607173l4.7988015,4.1247016-1.3589545,1.7973354Z"/>
    <path d="M272.5650734,203.735908l-5.7567591.0103775-1.0160923-1.0141983.0034081-5.5749692.9818174-1.0202207,5.7636895-.0029162,1.0043148,1.0188193.000757,5.5766733-.981173,1.0064343h.0000376ZM272.1328658,197.4418078h-4.9392358v4.9940375h4.9392358v-4.9940375Z"/>
    <polygon points="245.3983351 202.5353357 249.0993527 202.5378741 250.0586734 201.5826427 251.0308334 202.5582117 249.7838295 203.8222209 244.7800219 203.8185469 242.8932688 201.930771 242.8933067 198.0104693 244.7806657 196.1215195 249.7797777 196.1186033 251.0356812 197.3639032 250.0523107 198.378329 249.0841273 197.4087825 245.417158 197.4028743 244.3184646 198.4848278 244.307898 201.4159266 245.3983351 202.5353357"/>
  </g>
  <g>
    <g>
      <path class="cls-3" d="M195.1922593,124.6667019l-18.6710842,1.0535252c-.1317619.007472-.6305165-.0560078-.5793029-.0666786l4.6627001-17.3988511c.7681388-2.8415733-1.5517427-6.6262516-4.9683538-6.6299876l-27.2315363-.0277312c-1.4178646-.0016035-2.8901334.0629426-4.1660943.4406062-3.4534179,1.0215208-5.7674227,3.7766772-6.7201324,7.1778234l-3.9111007,13.9587657-2.0408928-.1632291-2.0995784-.3307314c-4.1868825-.6598512-9.8513652-1.7432402-13.7480591-2.5812565-.0874831-.0192092-.4107425.0031988-.374473-.1120236l6.3243339-24.0747129c.2635156-.9916408,1.7421821-1.8120514,2.6154016-1.8125886l9.6198541-.0031988,18.2784683-.0016035,7.0017909.0064058,2.3310815-.0090674,24.4673206.0197301c1.7059044.0016035,3.522229.450748,5.0926437.9457748,2.6244771.8278826,4.9512935,2.1902604,6.7308113,4.2690261,1.499471,1.7512495,2.6271306,4.1212702,2.2403914,6.4640969-.4000716,2.4260285-1.0380439,4.7149719-1.6781651,7.089803l-3.1760244,11.7861029Z"/>
      <path class="cls-3" d="M86.1279222,112.1428611c-.8908252-.3979391-2.6575397-1.0183139-3.7094614-1.3757102l-6.3979474-2.1710593-7.9070148-2.8111642-1.6947045-.6315828-2.249471-.8444139-2.7252886-1.030051c-.4635474-.1749662-1.0465863-.3248629-1.465859-.435283.5584984-4.131941,1.9987547-8.1646618,3.0282726-12.4390275.3013886-1.2508913.7638697-2.764761,1.7795219-3.5643671,2.4473702-1.9256785,6.2555187-1.7309822,9.1429661-1.7683179,1.9118088-.0245405,7.926224.0357404,8.4143078,2.3716242.1349607.6459816.1802976,1.6157516.0426753,2.1006447l-2.2110649,7.7907261c-.5995703,2.1134481-.345122,4.3053038,1.1916847,5.9749387.855622.9297645,2.2884062,1.6008156,3.620383,1.6034854l13.9838353.0309382c.8012095.0016035,1.4919989,1.2935666,1.3533104,1.9443504l-.6641245,3.11309c-.2106985.988442-1.2327484,2.3428186-2.4889792,2.3502825l-9.6246563.0586775c-.3808625.0021325-1.1175341-.13282-1.4183855-.2677807Z"/>
      <path class="cls-3" d="M786.0457959,53.6390544l-1.7923131,6.3526023-4.5907309,15.6251978-1.4263622,4.7624576.0207719.3248547.5179964-.5979749c.0805483-.0928145.1834964-.2080369.2528448-.2779143l.2986863-.3024549.2864445-.2901887.282212-.2816504.281105-.2827166.282212-.2821794.2869654-.2843201c.0362695-.0362695.2277752-.1536245.3141839-.2117729l.3451139-.2325693.3552719-.2427111.3168536-.2080369.3718114-.2331147c.07306-.0458741.3221931-.1322828.3952531-.1600221l.4427876-.1664361.4246203-.1562943.4427225-.1685605c.0709763-.0272021.2635237-.0826808.386202-.1178841l.4475411-.1285631c.0677205-.019201.4683781-.0917482.6555861-.0917482l15.4678087-.019201.5798564.0010663c1.0732391.0016035,1.4306598,1.552809,1.2700842,2.2708086l-.1338781.6011737c-.3733741,1.6717674-.5872796,4.5741508-3.3995019,4.5810856l-15.6438819.0389393c-1.5432451.003736-3.1424247.9345668-4.3261002,1.8157955-1.7581924,1.3095688-3.0965831,2.9973303-3.7196114,5.1779942l-8.9402727,31.2738617c-1.179443,4.1250062,2.169464,7.0332581,3.9382703,7.0284639l11.8549222-.0298719c.8332221-.0016035,2.6565304-.5371649,3.1472432-1.446133l11.4975666-21.3040751c.0959807-.1787022.6395676-.2357763.8048967-.1797685l1.7432809.5851715c.3787136.1274886,1.126048.5814355,1.3383907.8881555,2.5998796,3.7569471,4.8973613,7.4199973,7.0215047,11.4404519,1.595468,3.0208046,1.9992512,7.5800275.1530873,10.1900896-3.0293185,4.2839702-8.8005342,8.2729495-13.4819063,10.6130983l-3.3536604,1.6760325-.2149473-.5440916,2.8346222-2.9839979,1.4946687-1.6040226,2.0270557-2.2649401c1.271647-1.420518,3.148806-4.2711668,3.107197-6.1989778-.07306-3.3968729-2.8869102-6.3638023-5.2995818-8.6708886-.0688274-.0661414-.2971235-.2304368-.3739602-.284312-.0768367-.0544124-.3035049.2811132-.3526022.3733986l-9.3014051,17.4319218-14.6911723,27.5217331c-.124827.2336356.0341858,2.6303375-3.1738756,4.7944457-3.7483925,2.5289847-8.7759855,4.1996941-13.3031633,3.6934673-2.3428674-.2619121-4.5187128-1.0930017-5.9957351-2.9589283-2.2148497-2.7983689-.0955249-5.9509354,2.284133-7.7251137,4.2279055-3.1520292,10.7176092-4.9059566,15.7809508-2.6148725,1.03163.4667502,2.1512967.3200606,2.7519251-.7948038l9.5243617-17.6815678c.2581843-.4800827.6075958-1.3767765.5894936-1.8878055-.0565857-1.6157516-1.4888083-2.4879129-3.0218953-2.4863176l-30.0939303.0330788c-.4507318.0005291-1.3676928-.2299077-1.6077749-.5270312-.3483046-.4304726-.5136336-1.4813281-.3221931-2.1449153l12.4982666-43.3293569c1.0604763-3.6769279-1.8285826-6.8663011-4.0236371-6.8732359l-16.3608072-.0528089c-1.3111723-.0042651-1.6803139-1.5368068-1.5106872-2.3673591l.4560712-2.2313322c.2043335-1.0017744.9351284-2.8042293,2.346579-2.8085026l10.772567-.0325335,5.3124747-.0570822c1.5090593-.0165313,3.0570578-.6017028,4.3490209-1.3212978,2.7834411-1.5501474,4.171971-4.2023557,5.0184767-7.1596845l3.1477642-10.9939689,1.2098521-4.2258259c.8593336.0090714,1.7944619.0288056,2.7385763.0970877l3.7617413.2720458,2.3247001.1690977,2.5508474.1877656,2.5263638.1867034,2.3129142.1914975c.9057611.0746838,1.7406112.1861702,2.5108663.32166v.0005331Z"/>
      <path class="cls-3" d="M176.1099036,38.7995971c-1.1410083,3.7313363-2.1678524,7.0732677-3.6694559,10.5016119-6.0096047,13.724593-16.0300676,24.7436355-29.7493374,31.032229-4.4717317,2.0499602-11.225472,4.1143354-16.2151594,3.9191018-.5243615-.0202754-1.3245047-1.0780658-1.2258217-1.5837553l.3472627-1.7821876c.3648603-1.8733986,1.4882629-3.2363135,3.2699133-3.9265657,3.0453532-1.1804767,6.3083317-2.9695991,9.0229454-4.8622069,11.2350847-7.8350008,16.2759938-20.8629358,19.3426725-33.7564432.2363053-3.1381596-1.8835404-6.2368488-5.135848-6.2443168l-10.2781099-.0245385c-.4822153-.0010663-1.2423611-.2368425-1.549073-.507291-1.2311612-1.0855276.0874668-3.8556241.7046509-5.4255056.4582201-1.1671422,1.7074998-1.5810815,2.8437058-1.5757481l5.9888165.0272042,7.3837115-.0031988,11.414316-.0032008,49.0893238-.0053354c1.1180713,0,2.0467695.9676395,1.7619203,2.1278489l-3.3526023,13.6563109-9.8951149,40.3138837c-.2528448,1.0295219-.9788374,2.2473344-1.8120595,2.7087533-1.8323268,1.0140488-3.9030915,1.5293429-5.9845351,1.5357405l-5.9946769.0181348c-1.6776279.0048023-5.0291557-.6609175-6.108825-1.8856648-.7825294-.8876264-.7377298-2.2051963-.4672712-3.291255l1.932068-7.7640611,8.3284281-33.3595745c.2336356-2.0985081-.2880561-3.969241-1.8093897-5.3470899-1.0476485-.9489696-2.4372365-1.2658252-3.8348175-1.246089l-6.8518942.0944159c-2.9706654.0410759-6.4555667,3.2576512-7.4957432,6.6587932Z"/>
      <path class="cls-3" d="M105.5351326,80.0363145l-67.1325571-.0133325c-2.1641204-.0026697-.7478675-4.5293511-.484885-5.536465.397406-1.5218708,1.9592823-1.9374075,3.3387326-1.9358121l19.8270162.0282765c1.89367-.4390109,3.5846425-1.067924,5.010496-2.3982973,2.2361304-2.0851756,2.7071539-3.8310856,3.552105-6.6459898l2.5455242-8.4767213c.9542969-3.1781651-1.0252568-6.4214135-4.2466304-7.0119204l-19.3170576.0266731c-.6822551.0010663-1.9891583-.40861-2.0328998-1.1426078-.1312247-2.1859912.4502149-6.4464872,3.1707012-6.4464872l20.1678813.0016035c3.6342445-.6806557,6.7356055-3.2421821,7.7309823-6.8956358l3.3467337-12.2859341c.208566-.7644028.8476127-2.0787719,1.4845269-2.4772441,3.0837553-1.9304787,9.1216366-1.772584,12.6326657-1.4151867,1.4455958.1472269,2.9034496.4912887,4.1676815,1.2866297.6811848.427811.9569666,2.0339661.7505332,2.8149043l-3.1557653,11.9242686c-.2853864,1.0780617-.250175,2.3865602.0661414,3.389409.7937456,2.5156482,2.8981264,3.6982615,5.3918997,3.688661l13.3629315-.0512095c1.1281968-.0042692,2.0424963.9398981,1.8312605,2.1070423l-.5419672,2.992003c-.3280535,1.8099229-1.8984682,2.503382-3.5729054,2.5044483l-13.9352915.0128034c-1.9155448.0015994-3.8001515,1.1228654-5.1961371,2.3401529-1.6072214,1.401317-2.5503183,3.2741825-3.166428,5.3166828l-6.1189668,20.2852363c-.0869459.2869817-.1280177.7638656-.1520292,1.1073923l2.2131974-2.1262434c2.0873122-2.006764,4.8061991-2.4335005,7.6029646-2.4345668l11.6676898-.003207c.4523434,0,1.2108858.1856371,1.4930652.4075437.3291279.2581761.677986,1.1991486.5755669,1.6605594l-.8166746,3.6769279c-.1461606.658785-1.2156881,1.3490453-2.060102,1.7256427Z"/>
      <path class="cls-3" d="M934.5763633,166.5904768l-21.1530715,11.3145586c-1.3923066.7446646-2.7786877.8348175-4.0594508-.0330626-1.053509-.7137346-2.1006366-2.2889515-1.6285468-3.8732359l6.7500368-22.6680564c.5952889-1.9987628,2.2126358-3.1322992,4.3468721-3.0133325.6865162.0384021,1.7251136.2411076,2.2857609.6822511l14.6015729,11.4889876c.9729607.7660063,1.3682137,2.1966661,1.2215078,3.2128474-.1946963,1.3511697-1.0028488,2.1609175-2.3646812,2.8890427Z"/>
      <path class="cls-3" d="M851.9749189,62.1253722c-.0160185.2048381-3.6603559,13.3559926-3.6603559,13.3559926-.8631103,3.0309464.4838106,6.2832621,3.7297043,7.0647334.39636.094947,1.2973026.2677807,1.7059044.2677807l7.0513928-.007472c2.0259487-.0021325,4.6749908-1.0247115,6.2512496-2.5044442,1.2680005-1.1906103,2.4783084-2.6516792,2.9701282-4.3415814l2.858129-9.627322,3.5712775.9009629,8.42716,2.1369142,2.0195022.5606391,3.6966906.9655049-1.2764655,4.7192451c-.3040909,1.1239317-.3472627,2.3353466.0085302,3.4523516.8315942,2.6084667,2.9935699,3.681193,5.568445,3.711594l5.1609502.0613472c1.9101728.022937,3.8508197.7206613,5.5652543,1.477063,3.7691645,1.6648326,7.4189066,5.3102852,7.1671037,9.6374597-.0805483,1.3874473-.5269824,2.8042375-.9084309,4.1410084l-4.3516907,15.2443312c-.5414381,1.8958066-1.0604763,3.6763907-2.0206092,5.4036287-1.7021928,3.0613473-4.4381645,5.2500123-7.7651274,6.4651632-2.3097886.8438848-4.8382361,1.3885136-7.3618651,1.4189146l-9.3413862.1136271c-2.1001156.0255987-4.0620555,1.1986114-5.5610218,2.5652543-1.4572922,1.3298361-2.4377412,2.999471-2.9951978,4.9518226l-7.7982063,27.3008928c-.8721614,3.052809,1.387488,6.6630583,4.9336959,6.6587932l11.3876511-.0154813c1.0348207-.0010581,2.3652022-.0335998,3.3488418.2400495.5424799.1504338.9132495,1.5922773.7617249,2.117176l-.7483762,2.5903401c-.2075241.7179834-1.2685214,1.7843202-2.2713703,1.7843202l-78.3270462-.0080092c-.6806557,0-1.4072181-.325921-1.6723047-.6406421-.2656726-.3142001-.5334288-1.2423611-.3819694-1.7779225l12.9377984-45.7095194,2.1529246-7.6013611,17.0574814-60.1681061,3.899331.6299793,5.6410492.8838904,7.9827445,1.3789131c.1797848.0309382.5883866.1840336.5867587.2021684ZM883.8979528,123.9113746l.6486839,1.2972945.2592261.0293428,1.4925199-5.3145584,6.5254523-23.2366885c.4453923-1.5864169.3744811-3.063488-.3872438-4.5650834-.7900503-1.5576194-2.430318-2.7071579-4.3554674-2.707687l-36.3211521-.0080011c-4.5501637-.0010663-8.2996632,3.2795179-9.4475901,7.335713l-4.5779031,16.182634c-.6699767,2.3694835.1093946,4.8926078,2.1647105,6.2117731,1.2124567.7777434,2.7081672.8742939,4.1591432.8737567l15.9014802-.0026616,3.1445735-.0005372,13.6291332-.0042651c3.1706849-.0005372,5.7076626.9980465,7.1644339,3.9089682ZM837.6134281,168.2040958c3.8518616-.6465025,7.0748345-3.7713296,8.091553-7.3421024l7.9022613-27.752178c.9302447-3.2672517-1.8365919-6.3766057-4.9417052-6.4251495-2.9802863-.0464032-5.6234028-.0725472-8.4671411.0560078-2.2739749.1024191-4.328249,1.3346465-5.8671964,2.8906543-1.4524736,1.4690619-2.230738,3.1728338-2.7919062,5.158256l-7.3778836,26.1060092c-.5718472,2.0238324-.3296814,3.9457749.9783002,5.5850007,1.1436944,1.4327924,2.9098309,1.7752528,4.7059208,1.7656482l7.7677972-.0421462Z"/>
      <path class="cls-3" d="M957.7015979,95.8034038c-.1328363.4624852-2.1876313,4.8109933-2.1876313,4.8109933-4.7539111,9.3168701-12.816683,20.2164211-20.5988707,27.3067613l-1.7800713,1.6221573c-1.9155123,1.7453727-6.4277786,5.1859953-8.7327486,2.9018461-.3888717-.3856648-.7745528-1.5384021-.5563496-2.2564018l13.1431737-43.2029345s1.9330935.6769197,2.7545948,1.0487229l6.6502793,2.7652901,3.4342087,1.4562666,2.8186037,1.2588924,4.4109461,1.9800827c.1856452.0826808.6438653.3083234.6438653.3083234Z"/>
      <path class="cls-3" d="M690.7103005,50.1968365l-2.961598,11.3369665c-1.6461281,6.359004-5.3540186,9.8476251-10.7187162,13.5939014-.3883508.0581403-.2325937.1210829.2075241.2645819l.5670286.0037279,2.0067395.0149359.5584984.0016035.5691774.0010663.5665077.0026697.5675495.0080011.5696984.0090674.5681356.0101337.5696984.0106709.5760797.0042651,15.3270283-.0320044.6422374-.0138697,15.2059129-.0208045c.3680998-.0005372.7180322.2587133.8935194.3931368l.3163327.2421739c1.2695633.9708444,1.0129418,7.6563107.8993798,9.4048904-.9415097,14.4495193-9.2715821,30.6636205-18.7842229,41.4324841-5.8516989,6.6246481-12.8753524,11.7620996-20.7711672,15.6556028-5.3529767,2.6394049-13.6258774,5.3609534-19.646682,5.449511-.771883.0117371-1.7096811-.961777-1.480799-1.8019177l1.1084667-4.0700647c.4229924-1.5544124,1.6018493-2.4308389,3.0058117-3.0149442,2.419639-1.0065767,4.724609-2.1347898,6.945254-3.5110291,5.7204905-3.5462323,11.5002363-9.1259017,15.2139221-14.6522249l2.6351724-3.9217716c5.1838709-7.7155092,8.3764348-17.7461057,9.4523436-27.0475027.4192808-3.6246562-2.4079181-7.0529963-6.1339108-7.0540707l-28.7085911-.0101337-28.7128888.1349607c-3.8747824.0181348-6.9153659,3.6843918-7.9501866,7.1959581l-21.5094505,72.9741345c-.3873089,1.3138257-1.105276,2.4009508-2.2996305,2.9733351-1.157564.5547543-2.700744,1.079653-4.004428,1.0807274l-7.7448764.0069186c-.9740676.0010744-2.2585424-.4475411-3.1755035-.7985317-1.5933843-.6091748-2.2457146-2.2361426-1.7406112-3.9505772l21.3200936-72.3084148c1.2407821-4.2092905-1.5560078-7.3026423-4.1479433-7.3047748l-30.0917815-.0250696c-1.1975452-.0010663-2.1203667-1.1564734-1.7720621-2.2718749l.9986163-3.1931011c.5062104-1.6189585,1.7912713-2.007293,3.316349-2.0051605l18.7323907.0277393,10.0402093-.0837552c2.6985952-.022937,4.9555097-1.3677091,6.7334323-3.2624494,1.40826-1.5005372,2.0910645-3.3008596,2.6671442-5.2852115l3.5910727-12.3659472,2.8484918-.30672,7.1986197-.6774569,3.4881246-.284316,5.9178565-.4310098-3.2710284,11.8399863-4.4599783,14.8677298c.0693484.230974.1595338.6129109.1189666.4214052l1.1031272-1.1463397c1.5997656-1.6616257,3.8471081-3.2592506,6.3696953-3.2635157l19.8856571-.0309382c3.7142719-.0058686,6.9858212.1914975,9.8785918-2.5465904,1.449869-1.3725114,2.5257778-2.9856013,3.0496346-4.9288814l4.0241581-14.9285398.6955673-2.2681389,1.6941836-.0618763,2.5471358-.1120236,5.4111252-.1216201,5.1123738-.1008196,4.3714208-.1482932Z"/>
      <path class="cls-3" d="M354.0718967,96.2258834c-1.1879406.1637582-2.3844113.4427388-3.696658.754261l-13.7389836,3.2629866-3.6529327.8230803-.2341565.0362777.6001075-4.3426477.4144622-4.9102135c.2976444-3.5264941-2.0467858-7.9166194-6.2283288-7.9240833l-39.8738065-.0698774c-2.575396-.0048023-4.8899381,1.6120237-6.4336716,3.3744649-1.158085,1.3223722-1.7624575,2.6655489-2.2612122,4.3975892l-6.1952337,21.4993168c-.0965505.3008595-.0848134.2789888-.0848134.2789888,0,0-2.0622508.3536603-2.6324864.4571457l-17.4543135,3.1835046,7.4295856-26.2052294c.5499683-1.9411435.2331147-3.9164321-1.1511339-5.4191019-.6657117-.723331-2.0238324-1.5986831-3.1034854-1.5992203l-26.3924537-.0133325c-1.0919436-.0005372-2.0414463-.9025623-1.798727-2.1235817.3584626-1.8024549.9052239-4.7048464,2.7407577-5.3236176l27.192597-.1269596c4.2172916-.019201,7.5144152-3.6006447,8.6308749-7.453068l9.3014051-32.1049472c.3392535-1.1714134,1.0311091-2.2580052,2.1529246-2.7316903,1.647756-.6955917,3.4485993-1.1463397,5.2548146-1.2423571,2.0899576-.1114864,5.9157077-.200569,7.8995265.2059044,1.0930017.223506,3.4385063.825748,3.6939883,1.9763549.2496541,1.1217992.0277393,2.3172118-.2901561,3.4096763l-8.1838873,28.1303707-4.4050531,14.7605125,2.7183578-2.8303733c1.5496264-.7926794,3.1370852-2.006764,5.089453-2.006764l62.1524702-.0106709c1.4802455,0,1.9646096,1.6578978,2.1358317,2.7396914l.511029,3.2288496c.4198017,2.6532746.5499683,6.6625211.4032623,9.3824743-.0720181,1.3303733-.4624852,3.4342168-.5099546,4.5362859Z"/>
      <path class="cls-3" d="M436.804582,103.382365l-2.9066403,2.0734344-4.5570986,3.4203472c-1.2903678.9681747-2.3161374,2.1107783-2.8671801,3.699865-.6582559,1.9000717-.4976803,4.261025.9985838,5.7439566l6.5867914,6.5259732,22.0940604,21.9217964,20.0633256,19.9603612c.4662293.4640805.5670612,1.6109655.3510069,2.1657198-.1637663.419818-.7665435.9639096-1.3415814,1.1383386-4.9101891,1.4898664-9.359521,1.6909766-14.4665878,1.3565092-3.3328559-.2181706-6.6870698-2.231324-9.0741509-4.6008238l-23.5012785-23.3225681-21.9281778-21.7703045-4.0348696-4.0391184c.1712221-.1472269.5920982-.488621.9046867-.6177131l32.0238657-13.1964955,1.6552443-.4592782Z"/>
      <path class="cls-3" d="M505.4339281,51.2092859s-2.3534813.7974776-2.9999838,1.0161813l-8.4564621,2.8639813-6.5873123,2.1977243-8.8463757,2.8943863-15.9009918,5.0206337c.0330788-.1018859,1.2285077-.7628034,1.3917206-.8870933l31.3453588-23.9434882,5.4985757-4.2028847c2.6820883-2.0499683,6.3536768-4.1036686,9.7734948-4.2765002l2.8997054-.1472248c2.5839262-.1306915,5.0915693-.1349587,7.6728257.0063997l3.1669733.1738979c.8801706.0485418,2.1358642.3707329,2.5465823,1.1847458.4774292.9463039-.2122776,1.976888-.9809699,2.5583235l-20.523141,15.5409175Z"/>
      <path class="cls-3" d="M388.1452179,87.3848309l-2.726888.6811848-15.7094861,4.143141-.6353351.1130899,11.8922662-44.8138919c.7862736-2.9674625,5.0051606-3.5915733,7.5837798-3.7398664,2.1726547-.124823,10.5634801-.3477958,11.528464,2.0302301.4453923,1.0977959.1637337,2.6762116-.1829755,3.8764265-1.3623859,4.7101777-2.5113872,9.2421863-3.5894448,14.0110415-2.012079,8.8975974-3.8380245,14.9344043-7.8542059,23.0505305-.146706.2971154-.1973661.4336714-.3061746.6481141Z"/>
      <path class="cls-3" d="M557.3739252,62.7585544l-2.2302822,7.1132692c-2.5561869,6.5809147-5.7301276,12.948453-11.6020775,17.1401378-2.8821241,2.0569031-5.8698662,3.5627717-9.2859401,4.6440363-.4043367.1280177-1.329307-.2021684-1.6269515-.4870257-.2549936-.2437774-.4203552-1.0828599-.2992398-1.5005291l6.230966-21.5403927c.4603363-.2267089,1.0599229-.4944896,1.6552443-.6577187l9.3269956-2.5625926,7.8312851-2.1491845Z"/>
      <path class="cls-3" d="M530.4965539,70.7151793c-3.884973,10.4578703-9.5243617,17.4260533-20.6154102,20.9866925-.344593.1104202-1.2039591-.2341809-1.4487946-.5008954-.2443146-.2661772-.4619642-1.1586059-.3568673-1.5223999l3.5318173-12.1931176c.0762832-.2640447.2688632-.8358837.2688632-.8358837l6.4384901-2.0921064,6.8156084-2.2179997c1.8435267-.5995703,3.6102493-1.1490095,5.3662929-1.6242899Z"/>
    </g>
    <path class="cls-4" d="M195.1922593,124.6667019l-1.1559524,5.4905909-.7910759,2.9130542c-1.0007,3.6875906-1.5154732,7.6482933-4.6456235,10.4477367-1.6546908,1.4802618-3.4043531,2.7460972-5.5700729,3.5104919-2.0344952.7179997-4.2652983,1.2988979-6.4971595,1.3026421l-30.1637996.0544043-35.7445352.0549415c-.1856289,0-.6422455-.2283124-.6267805-.2624493-1.049252.1344316-1.8424604-1.011379-1.5928145-1.9832816l1.6088249-6.2667309,2.2681389-8.559394,2.7791597-10.5688277c.098154-.3718032.177636-.5611682.2837829-.8129467.0554787.0389393.3040584.0965505.374473.1120236,3.8966938.8380163,9.5611766,1.9214052,13.7480591,2.5812565l2.0995784.3307314,2.0408928.1632291-3.0810856,10.8190027c-.8316105,2.9183855.8513569,5.741824,3.6523874,6.7649402l11.6484969.0432044,16.7827252-.0191929c.6182422-.0005372,1.5864169.2448355,2.2185288.3968647,1.6771069.4027414,3.1355061,1.5218708,4.0071303,2.9455958l1.2738284,2.0803693.3451302-1.227417,1.0305719-3.556366,1.2914422-4.6077587,1.07166-3.8433558,1.4119716-5.1027855.6817301-2.2137265c-.0512136.0106709.4475411.0741506.5793029.0666786l18.6710842-1.0535252ZM82.4184608,110.7671509l-6.3979474-2.1710593-7.9070148-2.8111642-1.6947045-.6315828-2.249471-.8444139-2.7252886-1.030051c-.4635474-.1749662-1.0465863-.3248629-1.465859-.435283-.0874831.1061551-.4272778.5862378-.4843559.7980107l-.5537002,2.0467695-2.9130542,10.956625-1.3735777,5.1683897-2.6847459,10.1186169c-.2677848,1.0103127-.420343,2.7535611.178165,3.6097121l3.8726905,5.5439289,1.0700606,1.480799,2.465509,3.5008873,1.7784516,2.5204546,4.7027057,6.6363934,2.9407976,4.1639455,5.8575756,8.3198817c1.4834688,2.1070505,2.2116021,3.8524314,5.0846507,3.8534895l8.7386253.0042651,14.2948285-.0010581,46.5278056-.0688111,9.9932445-.0058767,9.3750185.0005372,5.4468412-.041609c.7825457-.0058604,2.2356054-.605447,2.5535171-1.2898306.6902603-1.4861385.93884-2.7935666,1.181022-4.4834688.257647-1.799248-3.1216364-1.6173632-4.4178646-1.6178841l-69.4913739-.0101418c-3.037344-.0005372-7.6114948-2.0915692-9.4630307-4.5160105l-5.4100345-7.0823391-3.2907178-4.3938532-1.7133765-2.2734702-3.4987629-4.7309741-3.4283483-4.5410801c-1.8776637-2.4868467-3.3611324-5.0547707-3.730795-8.2366799-.389938-3.3558011.1002784-5.1241109.9724398-8.4831189,1.0193801-3.9254995,4.3181072-6.9479075,8.4564459-7.3613116.9809781-.098154,4.0860669-.0181429,4.521879-.0181429-.8908252-.3984682-4.0663287-1.2860945-5.1182505-1.6434909ZM3.7702425,171.4537499l10.9379586-.0485438,2.4932473-.7990689c1.033785-.3312605,2.0403637-.8737567,2.7802301-1.6669652l2.2009271-2.3588208c.9649738-1.0337951,1.8584667-2.1422619,2.6895482-3.2816586l2.13585-2.9279982.6417144-.8796171c.2965863-.4070065.6726546-.870566.9345668-1.2887724l2.4078978-3.8454802,1.1159347-1.8003224,2.7162172-4.604568.988446-1.777369c2.4873798-4.471748,4.8301984-8.9002753,6.9089682-13.6083124l1.6301584-3.6913267.9532387-2.2051963,1.0919273-2.5609892,1.0833971-2.6143353c.4256744-1.0268522.7852073-2.1507839,1.1580728-3.2357763l.9276319-2.6980905.7265298-2.1998568.9409685-2.916253c.5510345-1.7080451,2.6228696-7.9598319.9148326-8.9290647-3.2816545-1.8616696-8.2185411-1.7661854-11.9552087-1.4173274-1.246089.1162887-5.1779942.9447085-5.3390908,2.7124893l-.1706971,1.8787381-.5248905,2.5929936-.4102094,2.0345033c-.2699132,1.3373-.5990391,2.5935308-1.0092465,3.8908253l-.6726546,2.1294503-.6315787,1.9763549c-.4496797,1.4071856-.9905765,2.7146137-1.5533441,4.0657915l-1.9448815,4.6680396-.8188132,1.8189862-1.8541996,3.7564099-2.2195971,4.2572971-1.1468728,2.0942389-1.3346384,2.2793469-1.6317599,2.693272c-.3397927.5617054-.7329295,1.1554152-1.102063,1.7005812l-1.2663604,1.8685963-4.4936045,6.5190384c-.2741824.4454085-.5990402.9751095-.8934929,1.3431767l-2.3081475,2.8837032-1.505336,1.8819451-2.7050177,3.313663-3.1819028,3.6390468-1.2082164,1.389588c-.4331442.4976803-.258713,1.8749939-.0368066,2.6111284l3.5403672,1.355972v.0005372ZM786.6965635,51.4450621l1.083918-3.7718749.761204-2.6500758.9468492-3.3045916,1.595468-5.4975176,1.3026421-4.404522c.4918198-1.6621649,1.5347149-5.0766435-.6758372-5.8607825-1.5757379-.5585005-3.1280341-.9420368-4.7587297-.9500379l-4.8696871-.0240033c-1.9629817-.0101357-4.1740547.5761021-5.9386285,1.4626622-1.1895359.5974397-1.8222013,1.6461606-2.1657524,2.8698457l-1.0391184,3.696129-.7227857,2.4644407-1.1014993,3.7878772-1.0423741,3.7590756-.8278826,2.8506447-1.4599619,5.0905111c-.124827.4336755-.3152908.9110966-.4646014,1.249821.8593336.0090714,1.7944619.0288056,2.7385763.0970877l3.7617413.2720458,2.3247001.1690977,2.5508474.1877656,2.5263638.1867034,2.3129142.1914975c.9057611.0746838,2.5108663.3221931,2.5108663.3221931,0,0,.1104364-.3136548.6507676-2.1939923ZM891.3718172,68.2848776l5.215387-18.027227c.5685914-1.9646218,1.9624608-3.5510387,3.4763386-4.8344676,1.3981019-1.185279,3.8775172-2.0019576,5.9429261-2.0083593l13.6157844-.0432084c1.9582282-.0058686,3.4176693-4.2300909,2.6500839-5.8127718-.3355419-.6918597-1.5576357-.7073288-2.3732765-.7073288l-36.0240286-.0031988-2.5924564-.0538793-11.0793276.0101377-7.9758422-.140292-19.8697037-.0400096c-1.6066679-.0031988-2.5849681,1.363444-2.9690212,2.7210235l-5.5236453,19.6851248,3.899331.6299793,5.6410492.8838904,7.9827445,1.3789131c.1797848.0309382.5867587.2021684.5867587.2021684,0,0,.4321086-1.0924604.5984796-1.6749663l2.9061844-10.199157c.280519-.9841769.9883931-2.0291638,1.5949471-2.8570464,1.5896076-2.1678564,2.7924922-2.7754319,5.3134514-3.5665037.6027772-.1888359,1.7122858-.3947403,2.3716486-.3894049l7.7203277.0661455c2.2067754.018672,4.1857756,1.4888001,4.8333524,3.5777077.4005926,1.2930294.3206303,2.6362061-.0373114,3.881762l-2.5519544,8.8794545-1.5821192,5.4975176-.260854.992178,3.5712775.9009629,8.42716,2.1369142,2.0195022.5606391,3.6966906.9655049.7761155-2.6122028ZM957.7015979,95.8034038l3.5520683-8.5108583c.1008644-.269376.2294031-.8492162.3248629-1.1698058l2.022758-6.7884144,9.7644437-32.73653,2.763125-9.2416573,1.439776-4.8019259,7.5490731-25.0327488c.7777434-2.5780617,1.1121783-5.534858-1.9881164-6.5446388-1.605626-.5227603-3.2453728-.9852431-4.9299192-.9767082l-7.4205345.0394737c-2.1102737.011202-4.2770679.5878386-6.1584595,1.5277402-1.3090235.6539838-2.324635,2.238801-2.7471716,3.6241158l-2.1384689,7.0087216-1.6547234,5.438308-20.5706105,67.6766487c-.1808266.5958424-.520601,1.6707012-.520601,1.6707012,0,0,1.9330935.6769197,2.7545948,1.0487229l6.6502793,2.7652901,3.4342087,1.4562666,2.8186037,1.2588924,4.411467,1.9800827c.1851243.083218.6433444.3083234.6433444.3083234ZM634.5620955,51.630162l.6449723-2.166257,1.6295887-5.718887.4528806-1.6269596,1.7715412-6.4256827c.1962591-.7110608-.2043335-2.2809443-.8502825-2.6500758-1.1074249-.6326471-2.4714061-1.1052659-3.6929139-1.1186004l-7.3192142-.083216c-1.4610689-.0165354-2.9808072.4326112-4.3607418.9030955-1.8558011.6331802-2.5541032,1.8125906-3.0784809,3.6715905l-2.0691205,7.3378496-1.1405037,4.0833972-.7542366,2.4868426-.5803774,2.0723722-.4886292,2.0291638,2.8484918-.30672,7.1986197-.6774569,3.4881246-.284316,5.9178565-.4310098c.0709111-.2560476.2800632-.7510704.3824252-1.0951302ZM270.0541831,113.8631724l-17.4543135,3.1835046-.5734425,1.8061909-.5707728,2.0030198-1.2359472,4.1842209-1.0028488,3.4726189-.972977,3.5627717-.8321477,2.9290564-.4902245,1.4727979-.6571815,2.4729689-1.0807274,3.7046673-.849208,2.8917287-1.8600661,6.3371211-.450748,1.8312687-.9004379,3.034137-.7905387,2.5887285-1.0311254,3.7036091c-.4048577,1.4551922-1.3965066,4.799248-.0581322,5.537515.5750379.3173908,1.454655.9297726,1.9512771,1.0103209,4.04073.6550489,10.3863976.8726823,14.1886735-.6486513,1.9555585-.7825457,2.5791239-4.5192174,3.199515-6.6678606l.4598154-1.5901448.8753521-3.037344,1.8376663-6.3963602,1.7827085-6.2144428.8689544-3.018672,1.2124892-4.2124893,2.4681828-8.6138064,1.932068-6.616118,1.0732716-3.7457391,1.1959335-4.3954485.3974182-1.026315c-.4368784.0400055-2.0622508.3536603-2.6324864.4571457ZM691.268799,48.5874826l.9724398-3.64332.9847466-3.5264982c.4363412-1.5629467,2.460141-7.4616022.7419948-8.4207054-.8401895-.4688848-2.3812207-1.1228695-3.3424605-1.1607425-3.1680803-.1253561-6.0032234-.1109533-9.1472759-.0133345-.9318726.0288036-2.0264696.3792671-2.9546306.67052-1.3352.4192747-2.4783084,1.4381237-2.8837195,2.7524907l-.5168894,1.6765697-.5270475,2.04143-1.1548943,4.4087891-1.2695633,4.684575-.5974377,2.6842127,1.6941836-.0618763,2.5471358-.1120236,5.4111252-.1216201,5.1123738-.1008196,4.3714208-.1482932s.3931694-.9895082.5584984-1.6093539ZM502.4339443,52.2260003l-8.4564621,2.8634481-6.5873123,2.1977243-8.8463757,2.8943863s-15.6881607,4.9704904-15.9009918,5.0206337l-1.2226148.8316146-1.4802781,1.0316504-2.1566362,1.5544165-2.1891941,1.5634798c-.6118283.4368784-1.2466099,1.0044442-1.8680754,1.477063l-1.8216478,1.3858439-.8620359.7329356-1.762425,1.3613115-2.2601378,1.6834964-2.4692573,1.8408651-1.590161,1.2626284-1.1127318.890288-2.0579531,1.6157597-1.8136711,1.3751811-3.0613555,2.3028049c-1.8323268,1.3783881-1.9368703,1.6915057-3.9249541,3.2128474l-2.0510183,1.5698775-2.0201208,1.6184213-1.7373554,1.4263947-1.7944619,1.3261001-3.5008873,2.7140846-1.9651631,1.4669293-5.3081445,4.0876704-1.2807632.992178-1.2749028.9937733-1.7592343,1.3351756-2.4308389,1.8051247-3.4331668,2.5465904c-2.3641603,1.7539111-2.7828876,1.5416091-2.6895441,4.6413584l1.0364486.757468,1.4402644,1.0503264c.1712221-.1472269.5920982-.488621.9046867-.6177131l32.0238657-13.1964955s1.5587101-.3990054,1.6552443-.4592782c.381416-.2363135,1.1180713-.7276042,1.5479985-1.0449869l2.1641245-1.5970877,2.2606913-1.6792395,2.6452653-1.9587492,1.6034772-1.1831464,1.3346465-.9687037,3.1504339-2.2548064,1.9411353-1.4674584,1.6530955-1.2466262c2.0291719-1.5298719.4219506-.5563659,2.4361784-2.0681031l1.934754-1.4514562,3.4181902-2.5652624,1.7032672-1.4007879c.7457064-.6134399,1.4882548-1.14367,2.2835795-1.7245682l2.0766414-1.5176057,1.8552801-1.3778509c.4411272-.3275245.897231-.7579971,1.351186-1.1623419.5302056-.4720816,1.1820802-.9025623,1.7581599-1.3495743l4.4802619-3.4795537,2.8896125-2.2206694,5.1662571-3.9366994,1.9069821-1.4717316,1.6131144-1.2130183,2.101711-1.5805483,1.1479269-.8625568,1.2514285-.9953768,3.7628157-2.8122386,2.2756028-1.7011021,1.601361-1.2428902,1.2978235-1.0177807c.3622068-.283787,1.8088525-1.2567599,2.0163441-1.6205579-.5600938.1242898-2.3534813.7974776-2.9999838,1.0167144ZM350.3752386,96.9801444l-13.7389836,3.2629866-3.6529327.8230803-.2341565.0362777c-.120041.3141839-.1984405.5424962-.2843283.951098-.6998649,3.3456674-1.090332,5.0185012-2.2910678,8.2441438l-.6961533,1.8691335-.9681747,2.3945694c-.4502108,1.1148643-.9905745,2.1859871-1.5885331,3.2379089l-1.4573248,2.5647252c-1.1159225,1.9635515-4.2199614,5.938132-5.8229177,7.5256151l-3.7174625,3.681193c-.4614107.4571457-1.1479269.973506-1.6749744,1.3677091l-2.1624966,1.6157597c-4.0487393,3.0250778-9.7494997,6.3467338-14.5146107,7.8675465l-6.7281579,2.1475851-1.5586775,1.212473-.8289245,2.6922138c-.2950073.9596445-.6651907,3.5313127.5889075,3.634798,2.9279657.2405704,2.9936024.1594849,5.8799591-.20378,3.3360791-.4198017.7804132.1157597,3.6940208-.6257143l2.795162-.7110485,3.2309822-.8711032,2.997314-.844943c.5627961-.158964,1.1431409-.3339302,1.684579-.5216917l3.2368426-1.1217992,1.4930733-.4971593c2.5695356-.8550848,4.1676734-1.5464195,6.5355778-2.7908969.6113074-.321135,1.318628-.5921145,2.0040698-.8993635l1.7795179-.7969526,1.0226115-1.1084504c.6134236-.6651907,1.7138811-.9020333,2.4644387-1.3661138l1.7106904-1.0583275,1.84675-1.0924645c.3712579-.219245,1.1073923-.5814355,1.3895717-.8241385l1.5234824-1.3117095c.3824578-.3291279.7009068-.6283759,1.0556578-.9628352l1.7154764-1.6189585,1.8888799-2.1353189,1.3298605-1.4903955,2.0563578-2.2745447c1.0524345-1.1650035,1.3010142-2.6346026,2.404174-4.3709161.6806557-1.07166,1.240196-2.2505332,1.8894008-3.2165753l.6795813-1.0119162,1.4674503-3.0704147c.8353709-1.7491088,2.3412395-5.5380603,2.8677336-7.3485164l.8353384-2.8703789c.3275326-1.1244689.5920982-2.3188153.8156083-3.4907618l.6481304-3.3984682.0853343-1.9774211c-1.1879406.1637582-2.3844113.4427388-3.696658.754261ZM368.923612,92.7761934l-.3728532,1.4295935-1.3586417,5.1305167-1.0124534,3.5873123-.5905029,2.3689545c-.1770825.7099904-.6550327,2.0504974-.5040942,2.6874115.4320761,1.8179281,2.7674226,1.158614,3.9762003,1.192751l1.0183139-.6651907c1.1724756-.7665354,2.1640919-1.5922854,3.1984243-2.5396475l2.231324-2.0425044c.9207052-.8433476,1.8846148-1.7416449,2.6890232-2.6746082l1.5896076-1.8440639c.5531915-.6417165,1.1660942-1.3245047,1.6717837-1.9966303l3.0677368-4.0785949c.3158118-.4198099.6225073-.9169611.9217796-1.3714451l1.2434193-1.8867392c.4843641-.7339937,1.1132527-1.7736493,1.4525387-2.6884778l-2.726888.6811848-15.7094861,4.143141-.6353351.1130899c-.0682739.136027-.0960133.2485797-.1498966.4539468ZM530.9953085,69.7240676l.7030556-2.2137305.7452181-2.4863095.7558645-2.6303375c.4304807-1.4973344.8044084-3.1845709.6875906-4.6861744-.1264224-1.6253561-3.4107344-2.386027-4.6931255-2.3796253l-6.7979946.034141c-.4769083.0021325-1.4456039.2720458-1.824871.4278069l-2.4543132,1.0087133c-.912696,1.2519576-1.3244885,2.6399421-1.7608296,4.1367433l-2.502857,8.5924728-1.9768839,7.1218075,6.4384901-2.0921064,6.8156084-2.2179997c1.8435267-.5995703,3.6102493-1.1495385,5.3662929-1.6242899.0901529-.2421739.4134204-.7227938.4987547-.9911117ZM557.3739252,62.7585544l.812385-3.1728338c.3606114-1.4077187-.2854027-3.1221614-1.762425-3.5643712-.4902571-.1466937-1.4845757-.5569031-1.9475493-.5851715-2.1374921-.1290921-7.5811101-.3397947-9.3414188.2549773-2.7765063.9388359-3.3717952,1.2679598-4.1602176,4.018318l-2.4142995,8.4185769c.4603363-.2267089,1.0599229-.4944896,1.6552443-.6577187l9.3269956-2.5625926s7.7683181-1.9027414,7.8312851-2.1491845Z"/>
  </g>
</svg>